<svg width="28" height="28" viewBox="0 0 28 28" fill="none" xmlns="http://www.w3.org/2000/svg">
<g opacity="0.4">
<path d="M12 0.5H16C22.3513 0.5 27.5 5.64873 27.5 12V16C27.5 22.3513 22.3513 27.5 16 27.5H0.5V12C0.5 5.64873 5.64873 0.5 12 0.5Z" fill="#33EED5"/>
<path d="M12 0.5H16C22.3513 0.5 27.5 5.64873 27.5 12V16C27.5 22.3513 22.3513 27.5 16 27.5H0.5V12C0.5 5.64873 5.64873 0.5 12 0.5Z" stroke="url(#paint0_linear_16_139)"/>
<path d="M12 0.5H16C22.3513 0.5 27.5 5.64873 27.5 12V16C27.5 22.3513 22.3513 27.5 16 27.5H0.5V12C0.5 5.64873 5.64873 0.5 12 0.5Z" stroke="url(#paint1_linear_16_139)" stroke-opacity="0.2"/>
</g>
<path d="M19.6573 16.001C19.2435 17.1708 18.4773 18.1835 17.4641 18.8997C16.4509 19.6159 15.2407 20.0003 14 20C11.3885 20 9.16637 18.3308 8.34267 16.001C10.043 17.0499 12.0022 17.6037 14 17.6C16.0745 17.6 18.0123 17.015 19.6573 16.001ZM19.4749 11.543C19.8637 12.4081 20.0409 13.3534 19.9921 14.3006C18.2923 15.6629 16.1782 16.4036 14 16.4C11.7335 16.4 9.65051 15.614 8.00791 14.3C7.95914 13.353 8.1364 12.4079 8.52505 11.543C10.0948 12.7498 12.02 13.4028 14 13.4C16.0601 13.4 17.9583 12.7076 19.4749 11.543ZM14 8C14.9512 7.99939 15.8889 8.22522 16.7355 8.65882C17.5822 9.09242 18.3135 9.72135 18.869 10.4936C17.4877 11.6005 15.77 12.2025 14 12.2C12.1582 12.2 10.4652 11.5616 9.13098 10.4936C9.68647 9.72135 10.4178 9.09242 11.2644 8.65882C12.1111 8.22522 13.0488 7.99939 14 8Z" fill="white"/>
<defs>
<linearGradient id="paint0_linear_16_139" x1="2.42458" y1="5.81922e-08" x2="12.4566" y2="36.8963" gradientUnits="userSpaceOnUse">
<stop stop-color="white"/>
<stop offset="1"/>
</linearGradient>
<linearGradient id="paint1_linear_16_139" x1="14.0782" y1="-1.4359" x2="20.4205" y2="30.7455" gradientUnits="userSpaceOnUse">
<stop stop-opacity="0"/>
<stop offset="1" stop-color="white"/>
</linearGradient>
</defs>
</svg>
